PathFileType	4	(X/Y/Z)	8_coords_data.trc
DataRate	CameraRate	NumFrames	NumMarkers	Units	OrigDataRate	OrigDataStartFrame	OrigNumFrames
30.0	30.0	5	21	m	30.0	11	53
Frame#	Time	THUMB_TIP	THUMB_IP	THUMB_MCP	THUMB_CMC	INDEX_TIP	INDEX_DIP	INDEX_PIP	INDEX_MCP	MIDDLE_TIP	MIDDLE_DIP	MIDDLE_PIP	MIDDLE_MCP	RING_TIP	RING_DIP	RING_PIP	RING_MCP	PINKY_TIP	PINKY_DIP	PINKY_PIP	PINKY_MCP	WRIST
X1	Y1	Z1	X2	Y2	Z2	X3	Y3	Z3	X4	Y4	Z4	X5	Y5	Z5	X6	Y6	Z6	X7	Y7	Z7	X8	Y8	Z8	X9	Y9	Z9	X10	Y10	Z10	X11	Y11	Z11	X12	Y12	Z12	X13	Y13	Z13	X14	Y14	Z14	X15	Y15	Z15	X16	Y16	Z16	X17	Y17	Z17	X18	Y18	Z18	X19	Y19	Z19	X20	Y20	Z20	X21	Y21	Z21
9	0.33333333333333187	0.4788699731590341	-0.0308942523776502	-0.1719824232961657	0.48460651914693054	-0.026676785934530378	-0.1501351118613482	0.48193418348056816	-0.025632625203864556	-0.11914175208131109	0.4797864218705673	-0.024869586341318417	-0.07459183747128234	0.5025821510069582	-0.010884726746423379	-0.10239295848006222	0.5204734872991199	-0.011442379986080109	-0.10514779214928494	0.5341050488675907	0.005734984742361338	-0.11744122548546423	0.4946573173335025	0.021726212719381355	-0.11610212182947938	0.5062437667087946	-0.012647310215275653	-0.08899970855153089	0.5237624721341758	-0.008251603275667874	-0.09033114413758284	0.5408842872116822	0.013073837673193589	-0.1004048012087907	0.5007064322725051	0.03243843567918181	-0.0977779708844431	0.5107078226958985	-0.0034037084415680097	-0.07496317931110863	0.5284856249955115	-0.0004641658269852744	-0.0755189082134767	0.54451266461983	0.017818577119492418	-0.08090920414538558	0.5086744695805749	0.036432543613517665	-0.07894327899736345	0.5124586271338046	-0.008746439333681688	-0.06016196735160434	0.5294469145693473	-0.006650626440160012	-0.06023718917509441	0.5401781698841079	0.011332555577113324	-0.06173963481572245	0.5109852646744648	0.032194478310966	-0.05807385846308544	0.4622830810018608	-0.023011742144276925	-0.05198982011943096
10	0.3666666666666651	0.4789252671612262	-0.03098353655275632	-0.1719582481793385	0.4846589952595056	-0.026745354462243798	-0.15011420609316178	0.4819731658439599	-0.02568120120776718	-0.11912269276771129	0.47980679018261874	-0.024892902374695436	-0.07457411926143917	0.5025920746887425	-0.01088637897232847	-0.1023983572908094	0.5204844538268786	-0.011425111036442281	-0.10515018151126518	0.5340943176720349	0.005764761563900933	-0.11745017009257191	0.49462047758521643	0.021694093786245205	-0.11614310553774784	0.5062606676790838	-0.012610282264468142	-0.08901442851325425	0.5237783432777041	-0.008211721085425006	-0.09034998127361829	0.5408665287673232	0.013135539837229704	-0.10043451982391774	0.5006518857532838	0.03242756982153583	-0.09783683097842252	0.5107060265591444	-0.0033614555730501205	-0.07497889445046496	0.5284818795144114	-0.00041054439118082264	-0.07553672498875136	0.5444902079358757	0.017882670045177185	-0.08094705822580525	0.5086233778897089	0.03644399969427292	-0.07900582714811341	0.5124612452731858	-0.008693170534882055	-0.06016192941692733	0.5294459695140585	-0.0065685924355811665	-0.06023480164399156	0.5401671374015801	0.01141903934814914	-0.06175588051785544	0.5109358586597769	0.032232722003000314	-0.05812181826437568	0.4622830810018609	-0.023011742144276925	-0.05198982011943096
11	0.39999999999999825	0.4790261393622103	-0.031065462006836353	-0.17193139767900462	0.4847468191343457	-0.026809131012543008	-0.1500874632941073	0.4820295117304365	-0.02573443780248097	-0.11909905780145719	0.47983194838427057	-0.024917256690242917	-0.074552532343579	0.5026146463081351	-0.010872206582126176	-0.10241261898667414	0.520508867835148	-0.01138485973173986	-0.10515743641054401	0.5341001425551034	0.00581856720466134	-0.11745902923954823	0.4945918160007632	0.021664320643663304	-0.1161782775751039	0.5062822029597818	-0.012581755995159316	-0.0890192354828804	0.5237955124985304	-0.008166607449142438	-0.09035731332687241	0.5408621522713161	0.013197427500753811	-0.10044281616637357	0.5006108141548373	0.032417849136592514	-0.0978829151969044	0.5107055588166645	-0.003327719334511592	-0.07498981384424463	0.5284786659195702	-0.000359046338344271	-0.07554085336231317	0.5444736985946483	0.017942672739499232	-0.08096173774762147	0.50858073301846	0.03645660190821587	-0.0790511663979194	0.5124722018681444	-0.008630677256851293	-0.06015751647956627	0.5294539178798071	-0.0064819412102190554	-0.060222744549717794	0.5401661970826392	0.011509840364470891	-0.061757309324896315	0.510891642485132	0.032268021003862946	-0.05815427717683827	0.462283081001861	-0.023011742144276925	-0.05198982011943101
12	0.43333333333333146	0.4790817033466809	-0.03117026152620017	-0.1719101163833992	0.4847925036530709	-0.02689876876944053	-0.15006655647459577	0.48205879728974255	-0.025790089625999046	-0.11908079070907052	0.4798509657209019	-0.024946087502825343	-0.07453527308743202	0.5026269377183453	-0.010857203169640672	-0.10244712830440658	0.5205222028134955	-0.01137526116833476	-0.10518411626278223	0.5340996993364359	0.005837373783746935	-0.11748804324468176	0.4945647566853998	0.021617960501270295	-0.11622412614691802	0.5062974295136855	-0.012559191500334799	-0.08904123586193535	0.5238149791127753	-0.008161216580555908	-0.09038036716558848	0.5408580723754773	0.013216961891497347	-0.10047571298709879	0.500582840108726	0.03239039706651148	-0.0979393828727862	0.5107048422321953	-0.003331999289552967	-0.07501568590494698	0.5284745961120392	-0.00034360210477180075	-0.07556825202385559	0.5444598964272105	0.017962105928349348	-0.0810043541420935	0.5085528075516665	0.03645052419449235	-0.07911221448024419	0.5124970021121332	-0.008596985888679631	-0.060176513537133935	0.529475724178726	-0.006424833916556016	-0.06024545405782411	0.5401832789459792	0.011568622284355956	-0.061793298963534526	0.5108730795423022	0.03227879405675749	-0.05820380776361164	0.4622830810018608	-0.023011742144276925	-0.051989820119430985
13	0.4666666666666647	0.47917573889695775	-0.03132196600337678	-0.17188803558375865	0.484872962257781	-0.027032931130057003	-0.15004436771793678	0.4821113101615895	-0.025876238767831072	-0.11906283546921206	0.4798662418005314	-0.02498334110133238	-0.07452013234275892	0.5026555696815798	-0.010854613521861234	-0.10247094749074614	0.5205520114211487	-0.01140978819080496	-0.10519292363854349	0.5341400162556668	0.005799404683990317	-0.11749006307075316	0.494594266354777	0.0215550192842886	-0.11625298290231026	0.5063290459280845	-0.0125767027781154	-0.08904644422824595	0.5238517065765111	-0.00819871850607845	-0.09038421009485992	0.5408880137986166	0.013182079350229636	-0.10048546097095135	0.5006042093296578	0.03234160549543963	-0.0979803509139458	0.5107293609984744	-0.0033425648865337276	-0.07503234913226808	0.5285025226509579	-0.00037257245716137977	-0.07557444676569516	0.5444853739185836	0.017931359121405088	-0.08102371581063234	0.5085739234742589	0.03641384319550289	-0.0791565405549233	0.5125281594718015	-0.008596086630972888	-0.060175562466759674	0.5295062574935121	-0.006418944290277007	-0.0602406684844044	0.5402138156610593	0.01157350189064188	-0.0618001868444536	0.5108865972463991	0.032263543883498835	-0.05823369369394399	0.4622830810018609	-0.023011742144276925	-0.05198982011943101
